<?xml version="1.0" encoding="UTF-8"?>
<!DOCTYPE svg PUBLIC "-//W3C//DTD SVG 1.1//EN" "http://www.w3.org/Graphics/SVG/1.1/DTD/svg11.dtd">
<svg xmlns="http://www.w3.org/2000/svg" version="1.1" width="500px" height="500px" style="shape-rendering:geometricPrecision; text-rendering:geometricPrecision; image-rendering:optimizeQuality; fill-rule:evenodd; clip-rule:evenodd" xmlns:xlink="http://www.w3.org/1999/xlink">
<g><path style="opacity:1" fill="#fefefe" d="M -0.5,-0.5 C 166.167,-0.5 332.833,-0.5 499.5,-0.5C 499.5,166.167 499.5,332.833 499.5,499.5C 332.833,499.5 166.167,499.5 -0.5,499.5C -0.5,332.833 -0.5,166.167 -0.5,-0.5 Z"/></g>
<g><path style="opacity:1" fill="#084cae" d="M 238.5,117.5 C 247.581,116.691 255.081,119.691 261,126.5C 262.128,128.345 262.628,130.345 262.5,132.5C 261.325,132.281 260.325,132.614 259.5,133.5C 260.803,137.032 260.803,140.532 259.5,144C 261.113,146.228 261.78,148.728 261.5,151.5C 260.5,151.5 259.5,151.5 258.5,151.5C 257.888,155.45 256.888,159.283 255.5,163C 251.806,163.278 248.139,163.278 244.5,163C 241.573,165.382 238.739,167.882 236,170.5C 237.134,183.203 233.634,194.37 225.5,204C 226.82,207.987 229.487,210.654 233.5,212C 241.089,213.231 248.756,213.897 256.5,214C 259.447,214.112 260.78,215.612 260.5,218.5C 269.5,218.5 278.5,218.5 287.5,218.5C 289.015,226.222 290.681,233.889 292.5,241.5C 341.833,241.5 391.167,241.5 440.5,241.5C 434.736,265.055 428.736,288.555 422.5,312C 385.495,312.167 348.495,312.667 311.5,313.5C 313.5,321.5 315.5,329.5 317.5,337.5C 344.16,338.333 370.827,338.833 397.5,339C 413.279,345.671 417.112,356.505 409,371.5C 399.533,380.997 389.366,381.83 378.5,374C 371.474,365.414 370.807,356.414 376.5,347C 365.152,346.168 353.819,346.334 342.5,347.5C 348.94,358.345 347.273,367.845 337.5,376C 322.604,382.799 312.104,378.633 306,363.5C 304.532,357.14 305.865,351.474 310,346.5C 310.667,344.167 310.667,341.833 310,339.5C 300.784,301.966 290.95,264.632 280.5,227.5C 272.855,226.335 265.188,226.169 257.5,227C 256.102,229.562 254.435,229.895 252.5,228C 241.5,227.667 230.5,227.333 219.5,227C 216.649,225.392 213.649,224.726 210.5,225C 201.78,230.937 196.446,239.104 194.5,249.5C 200.271,261.376 205.771,273.376 211,285.5C 213.448,290.948 214.448,296.615 214,302.5C 204.498,316.833 195.498,331.499 187,346.5C 186.146,352.669 184.646,358.669 182.5,364.5C 183.24,366.894 184.907,368.394 187.5,369C 193.673,370.932 200.006,371.932 206.5,372C 209.326,374.522 208.993,376.522 205.5,378C 190.823,378.338 176.156,378.838 161.5,379.5C 161.334,372.825 161.5,366.158 162,359.5C 168.492,340.193 176.326,321.526 185.5,303.5C 183.735,296.031 180.901,289.031 177,282.5C 173.614,294.599 168.614,305.933 162,316.5C 157.909,320.305 153.076,321.472 147.5,320C 134.576,315.136 121.576,310.47 108.5,306C 102.634,304.183 96.6338,303.016 90.5,302.5C 84.4585,304.02 79.1252,306.854 74.5,311C 71.4579,314.269 68.7913,317.769 66.5,321.5C 64.3635,320.528 63.1968,318.861 63,316.5C 62.3333,312.167 62.3333,307.833 63,303.5C 67.4994,295.164 72.4994,287.164 78,279.5C 79.9541,277.775 82.1208,276.442 84.5,275.5C 88.3337,277.583 92.0004,279.916 95.5,282.5C 107.527,284.861 119.527,287.361 131.5,290C 135.889,291.029 139.889,292.862 143.5,295.5C 144.537,286.696 145.204,277.863 145.5,269C 139.916,250.533 143.249,234.033 155.5,219.5C 149.57,218.207 143.57,217.373 137.5,217C 148.939,212.114 159.939,206.448 170.5,200C 179.589,187.155 188.923,174.489 198.5,162C 206.544,155.98 215.544,152.146 225.5,150.5C 226.106,142.488 226.94,134.488 228,126.5C 230.463,122.198 233.963,119.198 238.5,117.5 Z"/></g>
<g><path style="opacity:1" fill="#3f77c1" d="M 411.5,249.5 C 418.011,248.182 424.678,248.182 431.5,249.5C 431.376,250.107 431.043,250.44 430.5,250.5C 424.355,249.51 418.022,249.177 411.5,249.5 Z"/></g>
<g><path style="opacity:1" fill="#fefefe" d="M 324.5,249.5 C 336.5,249.5 348.5,249.5 360.5,249.5C 360.5,256.833 360.5,264.167 360.5,271.5C 350.167,271.5 339.833,271.5 329.5,271.5C 327.815,264.144 326.148,256.811 324.5,249.5 Z"/></g>
<g><path style="opacity:1" fill="#f9fbfd" d="M 365.5,249.5 C 378.85,249.167 392.183,249.501 405.5,250.5C 403.446,257.442 401.779,264.442 400.5,271.5C 388.833,271.5 377.167,271.5 365.5,271.5C 365.5,264.167 365.5,256.833 365.5,249.5 Z"/></g>
<g><path style="opacity:1" fill="#fbfcfd" d="M 411.5,249.5 C 418.022,249.177 424.355,249.51 430.5,250.5C 428.83,257.188 427.163,263.855 425.5,270.5C 418.745,271.123 412.412,270.456 406.5,268.5C 407.413,261.843 409.079,255.509 411.5,249.5 Z"/></g>
<g><path style="opacity:1" fill="#f9fafd" d="M 323.5,269.5 C 318.41,271.144 313.077,272.144 307.5,272.5C 305.167,272.5 302.833,272.5 300.5,272.5C 298.984,264.774 297.318,257.107 295.5,249.5C 303.167,249.5 310.833,249.5 318.5,249.5C 320.477,256.075 322.144,262.742 323.5,269.5 Z"/></g>
<g><path style="opacity:1" fill="#5b8aca" d="M 406.5,268.5 C 412.412,270.456 418.745,271.123 425.5,270.5C 419.021,271.491 412.354,271.824 405.5,271.5C 405.263,270.209 405.596,269.209 406.5,268.5 Z"/></g>
<g><path style="opacity:1" fill="#98b5dd" d="M 323.5,269.5 C 324.404,270.209 324.737,271.209 324.5,272.5C 318.833,272.5 313.167,272.5 307.5,272.5C 313.077,272.144 318.41,271.144 323.5,269.5 Z"/></g>
<g><path style="opacity:1" fill="#6591cd" d="M 404.5,276.5 C 411.011,275.182 417.678,275.182 424.5,276.5C 424.376,277.107 424.043,277.44 423.5,277.5C 417.355,276.51 411.022,276.177 404.5,276.5 Z"/></g>
<g><path style="opacity:1" fill="#fdfefe" d="M 371.5,276.5 C 380.525,276.168 389.525,276.502 398.5,277.5C 395.699,286.369 393.366,295.369 391.5,304.5C 383.167,304.5 374.833,304.5 366.5,304.5C 366.5,295.5 366.5,286.5 366.5,277.5C 368.415,277.784 370.081,277.451 371.5,276.5 Z"/></g>
<g><path style="opacity:1" fill="#fbfcfd" d="M 404.5,276.5 C 411.022,276.177 417.355,276.51 423.5,277.5C 421.015,286.441 418.681,295.441 416.5,304.5C 409.745,305.123 403.412,304.456 397.5,302.5C 399.236,293.549 401.569,284.882 404.5,276.5 Z"/></g>
<g><path style="opacity:1" fill="#f9fafd" d="M 302.5,277.5 C 310.5,277.5 318.5,277.5 326.5,277.5C 328.191,286.927 330.191,296.261 332.5,305.5C 324.826,305.666 317.159,305.5 309.5,305C 307.088,295.851 304.754,286.684 302.5,277.5 Z"/></g>
<g><path style="opacity:1" fill="#f7f9fc" d="M 331.5,276.5 C 341.167,276.5 350.833,276.5 360.5,276.5C 360.5,286.167 360.5,295.833 360.5,305.5C 353.159,305.666 345.826,305.5 338.5,305C 335.929,295.551 333.596,286.051 331.5,276.5 Z"/></g>
<g><path style="opacity:1" fill="#bbcfe9" d="M 371.5,276.5 C 370.081,277.451 368.415,277.784 366.5,277.5C 366.5,286.5 366.5,295.5 366.5,304.5C 374.833,304.5 383.167,304.5 391.5,304.5C 383.016,305.493 374.349,305.826 365.5,305.5C 365.5,295.833 365.5,286.167 365.5,276.5C 367.5,276.5 369.5,276.5 371.5,276.5 Z"/></g>
<g><path style="opacity:1" fill="#b7cce7" d="M 397.5,302.5 C 403.412,304.456 409.745,305.123 416.5,304.5C 410.021,305.491 403.354,305.824 396.5,305.5C 396.263,304.209 396.596,303.209 397.5,302.5 Z"/></g>
<g><path style="opacity:1" fill="#fafbfd" d="M 321.5,346.5 C 335.902,346.388 340.736,353.055 336,366.5C 328.592,373.47 321.592,373.137 315,365.5C 311.515,357.152 313.682,350.819 321.5,346.5 Z"/></g>
<g><path style="opacity:1" fill="#f9fbfd" d="M 388.5,346.5 C 402.938,346.419 407.772,353.085 403,366.5C 398.318,371.523 392.818,372.689 386.5,370C 380.079,364.482 378.913,357.982 383,350.5C 385.015,349.303 386.849,347.97 388.5,346.5 Z"/></g>
</svg>
